<svg viewBox="108 108 296 296" xmlns="http://www.w3.org/2000/svg" role="img" aria-label="RustQuit menu bar icon">
  <!-- Glyph-only variant of rustquit-logo.svg (no background, no shadow),
       solid black: rendered as a macOS template image so the system
       recolors it for light/dark menu bars. -->
  <defs>
    <g id="tooth"><rect x="238" y="116" width="36" height="46" rx="11"/></g>
  </defs>
  <g fill="#000000">
    <use href="#tooth" transform="rotate(30 256 256)"/>
    <use href="#tooth" transform="rotate(60 256 256)"/>
    <use href="#tooth" transform="rotate(90 256 256)"/>
    <use href="#tooth" transform="rotate(120 256 256)"/>
    <use href="#tooth" transform="rotate(150 256 256)"/>
    <use href="#tooth" transform="rotate(180 256 256)"/>
    <use href="#tooth" transform="rotate(210 256 256)"/>
    <use href="#tooth" transform="rotate(240 256 256)"/>
    <use href="#tooth" transform="rotate(270 256 256)"/>
    <use href="#tooth" transform="rotate(300 256 256)"/>
    <use href="#tooth" transform="rotate(330 256 256)"/>
    <path d="M295.66,190.00 C285.37,183.82 280.93,176.83 287.18,166.00 L293.15,155.66 A107.0,107.0 0 1 1 218.85,155.66 L224.82,166.00 C231.07,176.83 226.63,183.82 216.34,190.00 A77.0,77.0 0 1 0 295.66,190.00 Z"/>
    <rect x="241" y="122" width="30" height="128" rx="15"/>
  </g>
</svg>
